<svg xmlns="http://www.w3.org/2000/svg" viewBox="0 0 800 600" role="img" aria-label="Athletics illustration">
  <rect width="800" height="600" rx="32" fill="#0f172a"/>
  <rect x="70" y="90" width="660" height="420" rx="24" fill="#111827" stroke="#f59e0b" stroke-width="8"/>
  <rect x="140" y="170" width="520" height="220" rx="16" fill="#1f2937"/>
  <circle cx="280" cy="280" r="72" fill="#f59e0b"/>
  <circle cx="280" cy="280" r="46" fill="#fff7ed"/>
  <path d="M470 235l55 45-40 60-55-45z" fill="#f59e0b"/>
  <path d="M470 235l52-22 18 24-55 22z" fill="#fde68a"/>
  <path d="M445 330l80-20 12 24-75 20z" fill="#f59e0b"/>
  <path d="M298 168c36-34 86-44 132-24" stroke="#fde68a" stroke-width="10" stroke-linecap="round" fill="none"/>
  <path d="M312 162l80 16" stroke="#fff" stroke-width="10" stroke-linecap="round"/>
  <path d="M230 390h334" stroke="#f59e0b" stroke-width="10" stroke-linecap="round"/>
  <text x="400" y="500" text-anchor="middle" font-family="Arial, sans-serif" font-size="40" font-weight="700" fill="#f8fafc">Athletics</text>
</svg>
