<svg xmlns="http://www.w3.org/2000/svg" width="240" height="240" viewBox="0 0 240 240">
  <rect x="0" y="0" width="240" height="240" rx="40" fill="#13284A"/>
  <g transform="translate(60,60)" stroke="#C79A3E" stroke-width="1.6" stroke-linecap="round" stroke-linejoin="round" fill="none">
    <g transform="scale(5)">
<path d="M4 7a2 2 0 0 1 2 -2h12a2 2 0 0 1 2 2v12a2 2 0 0 1 -2 2h-12a2 2 0 0 1 -2 -2l0 -12" />
<path d="M16 3l0 4" />
<path d="M8 3l0 4" />
<path d="M4 11l16 0" />
<path d="M8 15h2v2h-2l0 -2" />
    </g>
  </g>
</svg>
