<svg xmlns="http://www.w3.org/2000/svg" width="240" height="240" viewBox="0 0 240 240">
  <rect x="0" y="0" width="240" height="240" rx="40" fill="#13284A"/>
  <g transform="translate(60,60)" stroke="#C79A3E" stroke-width="1.6" stroke-linecap="round" stroke-linejoin="round" fill="none">
    <g transform="scale(5)">
<path d="M7 5.667a2.667 2.667 0 0 1 2.667 -2.667h8.666a2.667 2.667 0 0 1 2.667 2.667v8.666a2.667 2.667 0 0 1 -2.667 2.667h-8.666a2.667 2.667 0 0 1 -2.667 -2.667l0 -8.666" />
<path d="M4.012 7.26a2.005 2.005 0 0 0 -1.012 1.737v10c0 1.1 .9 2 2 2h10c.75 0 1.158 -.385 1.5 -1" />
<path d="M11 7h5" />
<path d="M11 10h6" />
<path d="M11 13h3" />
    </g>
  </g>
</svg>
