<svg xmlns="http://www.w3.org/2000/svg" width="240" height="240" viewBox="0 0 240 240">
  <rect x="0" y="0" width="240" height="240" rx="40" fill="#13284A"/>
  <g transform="translate(60,60)" stroke="#C79A3E" stroke-width="1.6" stroke-linecap="round" stroke-linejoin="round" fill="none">
    <g transform="scale(5)">
<path d="M12 21a9 9 0 0 1 0 -18c4.97 0 9 3.582 9 8c0 1.06 -.474 2.078 -1.318 2.828c-.844 .75 -1.989 1.172 -3.182 1.172h-2.5a2 2 0 0 0 -1 3.75a1.3 1.3 0 0 1 -1 2.25" />
<path d="M7.5 10.5a1 1 0 1 0 2 0a1 1 0 1 0 -2 0" />
<path d="M11.5 7.5a1 1 0 1 0 2 0a1 1 0 1 0 -2 0" />
<path d="M15.5 10.5a1 1 0 1 0 2 0a1 1 0 1 0 -2 0" />
    </g>
  </g>
</svg>
